<svg xmlns="http://www.w3.org/2000/svg" viewBox="0 0 64 64">
  <defs>
    <linearGradient id="bg" x1="0%" y1="0%" x2="100%" y2="100%">
      <stop offset="0%" stop-color="#4ade80"/>
      <stop offset="100%" stop-color="#15803d"/>
    </linearGradient>
  </defs>
  <rect width="64" height="64" rx="14" fill="url(#bg)"/>

  <!-- Sun -->
  <circle cx="32" cy="20" r="7" fill="white"/>
  <line x1="32" y1="7"  x2="32" y2="4"  stroke="white" stroke-width="2.5" stroke-linecap="round"/>
  <line x1="32" y1="33" x2="32" y2="36" stroke="white" stroke-width="2.5" stroke-linecap="round"/>
  <line x1="19" y1="20" x2="16" y2="20" stroke="white" stroke-width="2.5" stroke-linecap="round"/>
  <line x1="45" y1="20" x2="48" y2="20" stroke="white" stroke-width="2.5" stroke-linecap="round"/>
  <line x1="23" y1="11" x2="21" y2="9"  stroke="white" stroke-width="2.5" stroke-linecap="round"/>
  <line x1="41" y1="11" x2="43" y2="9"  stroke="white" stroke-width="2.5" stroke-linecap="round"/>
  <line x1="23" y1="29" x2="21" y2="31" stroke="white" stroke-width="2.5" stroke-linecap="round"/>
  <line x1="41" y1="29" x2="43" y2="31" stroke="white" stroke-width="2.5" stroke-linecap="round"/>

  <!-- Leaf -->
  <path
    d="M32 58 C24 52 18 44 20 36 C22 28 28 26 32 26 C36 26 42 28 44 36 C46 44 40 52 32 58 Z"
    fill="white"
  />
  <!-- Leaf vein -->
  <line x1="32" y1="56" x2="32" y2="30" stroke="url(#bg)" stroke-width="1.5" stroke-linecap="round"/>
</svg>
